# xmcd CD database file
#
# Track frame offsets:
#	150
#	22627
#	44917
#	61899
#	75934
#	95798
#	118528
#	131679
#	149733
#	163446
#	187042
#	207940
#	220804
#	249811
#	257825
#	274633
#	286249
#
# Disc length: 3978 seconds
#
# Revision: 0
# Processed by: cddbd v1.5.2PL0 Copyright (c) Steve Scherf et al.
# Submitted via: CDex 1.51
#
DISCID=000f8811
DTITLE=Stan Lafferiere and is tentet - The way I love you
DYEAR=2002
DGENRE=Jazz
TTITLE0=The way I love you
TTITLE1=Here's that rainy day
TTITLE2=Gone with the wind
TTITLE3=Skylark
TTITLE4=Sorry for lovin' you so
TTITLE5=Fly me to the moon
TTITLE6=Fascinating rythm
TTITLE7=Blue skies
TTITLE8=Fever
TTITLE9=Love me tender
TTITLE10=Lullaby of birdland
TTITLE11=Tenderly
TTITLE12=Round midnight
TTITLE13=Love is here to stay
TTITLE14=Take the A train
TTITLE15=I didn't know what time it was
TTITLE16=I can't forget
EXTD=YEAR: 2002
EXTT0=
EXTT1=
EXTT2=
EXTT3=
EXTT4=
EXTT5=
EXTT6=
EXTT7=
EXTT8=
EXTT9=
EXTT10=
EXTT11=
EXTT12=
EXTT13=
EXTT14=
EXTT15=
EXTT16=
PLAYORDER=
